HIERARCHY
ROOT SpineBase
{
  OFFSET 0.000000 0.000000 0.000000
  CHANNELS 6 Xposition Yposition Zposition Zrotation Xrotation Yrotation
  JOINT SpineMid
  {
    OFFSET 0.000000 31.281600 0.000000
    CHANNELS 3 Zrotation Xrotation Yrotation
    JOINT SpineShoulder
    {
      OFFSET -0.259932 23.205648 -0.737912
      CHANNELS 3 Zrotation Xrotation Yrotation
      JOINT Neck
      {
        OFFSET -0.126088 7.675637 -0.602437
        CHANNELS 3 Zrotation Xrotation Yrotation
        JOINT Head
        {
          OFFSET -4.140956 10.957040 1.291769
          CHANNELS 3 Zrotation Xrotation Yrotation
          End Site
          {
            OFFSET 0 0 0
          }
        }
      }
      JOINT ShoulderLeft
      {
        OFFSET -16.054918 -5.502356 7.230160
        CHANNELS 3 Zrotation Xrotation Yrotation
        JOINT ElbowLeft
        {
          OFFSET -2.310660 -27.704148 0.127127
          CHANNELS 3 Zrotation Xrotation Yrotation
          JOINT WristLeft
          {
            OFFSET -3.363407 -22.718603 -4.887781
            CHANNELS 3 Zrotation Xrotation Yrotation
            JOINT HandLeft
            {
              OFFSET 0.845478 -6.578596 -1.734703
              CHANNELS 3 Zrotation Xrotation Yrotation
              JOINT HandTipLeft
              {
                OFFSET -1.182681 -5.212227 -2.680432
                CHANNELS 3 Zrotation Xrotation Yrotation
                End Site
                {
                  OFFSET 0 0 0
                }
              }
              JOINT ThumbLeft
              {
                OFFSET 3.767023 0.288120 -2.559445
                CHANNELS 3 Zrotation Xrotation Yrotation
                End Site
                {
                  OFFSET 0 0 0
                }
              }
            }
          }
        }
      }
      JOINT ShoulderRight
      {
        OFFSET 14.185785 -2.048451 -9.426113
        CHANNELS 3 Zrotation Xrotation Yrotation
        JOINT ElbowRight
        {
          OFFSET 8.085719 -22.745482 -4.401779
          CHANNELS 3 Zrotation Xrotation Yrotation
          JOINT WristRight
          {
            OFFSET -6.719650 -22.708234 -6.979526
            CHANNELS 3 Zrotation Xrotation Yrotation
            JOINT HandRight
            {
              OFFSET -4.031160 -7.138851 -1.239640
              CHANNELS 3 Zrotation Xrotation Yrotation
              JOINT HandTipRight
              {
                OFFSET -2.586506 -6.247499 -1.001129
                CHANNELS 3 Zrotation Xrotation Yrotation
                End Site
                {
                  OFFSET 0 0 0
                }
              }
              JOINT ThumbRight
              {
                OFFSET 1.847857 -2.008818 -2.376369
                CHANNELS 3 Zrotation Xrotation Yrotation
                End Site
                {
                  OFFSET 0 0 0
                }
              }
            }
          }
        }
      }
    }
  }
  JOINT HipLeft
  {
    OFFSET -5.205978 0.519172 -0.726748
    CHANNELS 3 Zrotation Xrotation Yrotation
    JOINT KneeLeft
    {
      OFFSET -0.612232 -35.551067 -0.844293
      CHANNELS 3 Zrotation Xrotation Yrotation
      JOINT AnkleLeft
      {
        OFFSET 2.064323 -35.970018 4.500075
        CHANNELS 3 Zrotation Xrotation Yrotation
        JOINT FootLeft
        {
          OFFSET -1.326638 -7.682905 -6.788510
          CHANNELS 3 Zrotation Xrotation Yrotation
          End Site
          {
            OFFSET 0 0 0
          }
        }
      }
    }
  }
  JOINT HipRight
  {
    OFFSET 4.803376 1.476887 -7.157042
    CHANNELS 3 Zrotation Xrotation Yrotation
    JOINT KneeRight
    {
      OFFSET 11.084490 -34.575955 -2.449621
      CHANNELS 3 Zrotation Xrotation Yrotation
      JOINT AnkleRight
      {
        OFFSET 6.670188 -35.067440 6.163398
        CHANNELS 3 Zrotation Xrotation Yrotation
        JOINT FootRight
        {
          OFFSET -4.477422 -4.305650 -11.845083
          CHANNELS 3 Zrotation Xrotation Yrotation
          End Site
          {
            OFFSET 0 0 0
          }
        }
      }
    }
  }
}
MOTION
Frames: 14
Frame Time: 0.033333
13.655301 76.771927 362.843882 10.817262 0.130881 31.120528 -0.786070 0.441218 -30.811242 -0.206720 0.326114 0.425208 7.978437 -1.582434 -2.878262 0.000000 0.000000 0.000000 -5.407054 -7.299173 0.093100 -0.861071 11.219914 -2.241253 14.497418 -10.095782 -1.945819 -5.475584 -2.271336 1.462992 0.000000 0.000000 0.000000 0.000000 0.000000 0.000000 5.878751 -7.511928 -5.107134 6.141273 1.471324 -0.579600 -4.110757 2.345244 3.778792 5.816326 1.501760 -2.476909 0.000000 0.000000 0.000000 0.000000 0.000000 0.000000 -10.487234 8.554717 -30.523750 2.545084 -2.095124 0.022196 -3.259545 8.741570 1.508325 0.000000 0.000000 0.000000 -5.622839 8.141912 -29.915645 0.551420 -0.829365 -0.111742 2.925548 -12.943071 -7.403743 0.000000 0.000000 0.000000
13.672238 76.770361 362.926816 10.810756 0.161933 31.112508 -0.800860 0.413849 -30.803762 -0.232760 0.319663 0.423434 8.096261 -1.484487 -2.865026 0.000000 0.000000 0.000000 -5.502460 -6.876561 0.036553 -2.382013 11.558736 -1.724381 17.057724 -12.775082 -1.957156 -8.918748 1.928705 2.487880 0.000000 0.000000 0.000000 0.000000 0.000000 0.000000 5.912843 -7.587426 -5.123969 6.312924 1.556354 -0.643255 -3.443729 2.362602 3.652365 6.746208 2.109245 -3.132572 0.000000 0.000000 0.000000 0.000000 0.000000 0.000000 -10.502560 8.584690 -30.520168 2.579887 -2.145289 0.024002 -3.345588 7.667053 1.743178 0.000000 0.000000 0.000000 -5.718394 8.158050 -29.896005 0.752484 -0.637729 -0.059219 5.393267 -20.025454 -8.438855 0.000000 0.000000 0.000000
13.678212 76.734806 363.033758 10.819719 0.161151 31.118312 -0.858796 0.366805 -30.804348 -0.283393 0.273694 0.421715 8.315164 -1.148926 -2.850806 0.000000 0.000000 0.000000 -5.418162 -6.742348 0.044093 -1.833694 11.935252 -1.995246 14.465008 -12.498112 -1.478215 -5.255172 3.788913 -0.040396 0.000000 0.000000 0.000000 0.000000 0.000000 0.000000 6.000205 -7.531363 -5.153949 6.249401 1.945019 -0.795615 -2.481495 1.348095 4.182764 8.259509 4.718306 -5.651661 0.000000 0.000000 0.000000 0.000000 0.000000 0.000000 -10.477565 8.836511 -30.528070 3.465686 -2.182413 0.173368 -4.333204 6.613639 1.941159 0.000000 0.000000 0.000000 -5.773374 8.213435 -29.886615 0.872390 -0.374391 -0.007973 8.917883 -29.501549 -10.595423 0.000000 0.000000 0.000000
13.603557 76.666502 363.176594 10.724338 0.057161 31.107758 -0.811477 0.332205 -30.785495 -0.300607 0.231052 0.421282 8.476651 -0.731448 -2.831843 0.000000 0.000000 0.000000 -5.394259 -6.663572 0.059231 -1.179235 12.425862 -2.306359 12.122237 -12.948776 -1.016395 -3.802432 5.234650 -0.858941 0.000000 0.000000 0.000000 0.000000 0.000000 0.000000 6.103365 -7.430265 -5.191826 6.338380 2.233970 -0.967649 -0.471731 1.023182 4.020141 9.170212 5.239282 -6.501717 0.000000 0.000000 0.000000 0.000000 0.000000 0.000000 -10.076142 8.978104 -30.550971 3.341838 -2.448598 0.192329 -4.528023 6.235756 2.129614 0.000000 0.000000 0.000000 -5.541745 8.269424 -29.868887 0.814990 -0.077591 0.039862 10.706440 -34.632603 -11.102659 0.000000 0.000000 0.000000
13.737721 76.628296 363.179650 10.938794 0.136844 30.978654 -1.011948 0.294181 -30.650242 -0.354389 0.195120 0.422253 8.606209 -0.377963 -2.809783 0.000000 0.000000 0.000000 -5.478929 -6.821054 0.086094 -0.758946 12.580556 -2.449042 10.531668 -11.297513 -0.858967 -3.028174 4.769346 -1.386998 0.000000 0.000000 0.000000 0.000000 0.000000 0.000000 6.126605 -7.393062 -5.223225 6.167392 2.467314 -0.998519 0.857471 -0.165855 4.749375 11.031391 5.244576 -7.556157 0.000000 0.000000 0.000000 0.000000 0.000000 0.000000 -10.605556 9.102143 -30.370453 3.617316 -2.436127 0.184029 -3.814254 6.109393 1.544441 0.000000 0.000000 0.000000 -6.042089 8.315269 -29.725215 0.934177 0.254866 0.078622 11.336122 -36.098950 -11.591414 0.000000 0.000000 0.000000
13.919556 76.605002 363.122085 11.161721 0.253658 30.872574 -1.145772 0.286038 -30.545065 -0.391541 0.190364 0.424911 8.732713 -0.237046 -2.790751 0.000000 0.000000 0.000000 -5.571469 -7.016980 0.097122 -0.597763 12.279901 -2.442659 8.942683 -8.218038 -0.778417 -2.530900 3.292257 -1.764262 0.000000 0.000000 0.000000 0.000000 0.000000 0.000000 6.074051 -7.490793 -5.238390 6.064181 2.614088 -1.002527 2.283136 -1.003984 5.230058 10.748047 6.692043 -9.040566 0.000000 0.000000 0.000000 0.000000 0.000000 0.000000 -11.236827 9.194696 -30.205394 3.156122 -2.450745 0.034799 -2.312141 6.436784 1.007076 0.000000 0.000000 0.000000 -6.717271 8.295843 -29.615338 1.201824 0.589532 0.135106 10.060371 -32.568139 -11.599451 0.000000 0.000000 0.000000
13.952815 76.577811 363.185880 11.200745 0.224325 30.849476 -1.147003 0.282375 -30.517583 -0.398171 0.213290 0.424571 8.800896 -0.091026 -2.777628 0.000000 0.000000 0.000000 -5.541423 -7.097713 0.109924 -0.422386 11.537150 -2.395030 7.833885 -4.026458 -0.790817 -1.805512 -1.335016 -1.705068 0.000000 0.000000 0.000000 0.000000 0.000000 0.000000 6.037708 -7.553713 -5.258450 6.302371 2.514913 -1.000548 2.212159 0.049702 4.375510 9.995747 5.544031 -7.543666 0.000000 0.000000 0.000000 0.000000 0.000000 0.000000 -11.277446 9.381651 -30.169477 3.244859 -2.569337 0.040000 -1.247853 6.071712 0.113854 0.000000 0.000000 0.000000 -6.788861 8.376851 -29.574784 1.238001 0.568413 0.123136 11.976094 -37.550992 -11.634969 0.000000 0.000000 0.000000
13.869019 76.546539 363.282919 11.088332 0.141736 30.867514 -1.052740 0.269481 -30.532053 -0.377605 0.249574 0.422434 8.868294 -0.016112 -2.772200 0.000000 0.000000 0.000000 -5.457499 -7.133936 0.121266 -0.887654 10.460830 -2.057558 8.671593 1.098774 -1.226914 -2.586607 -5.879569 -1.519483 0.000000 0.000000 0.000000 0.000000 0.000000 0.000000 6.050098 -7.585431 -5.269540 6.403906 2.295112 -0.898682 0.987368 0.929826 3.905878 11.781459 4.769876 -7.171472 0.000000 0.000000 0.000000 0.000000 0.000000 0.000000 -10.922453 9.494228 -30.217596 3.111445 -2.758292 0.048577 -0.277845 6.282030 -0.786601 0.000000 0.000000 0.000000 -6.484530 8.424012 -29.585638 1.120107 0.448777 0.095557 12.135988 -37.991659 -11.125642 0.000000 0.000000 0.000000
13.706110 76.506967 363.455754 10.867334 -0.053828 30.744877 -0.871291 0.281218 -30.403091 -0.330675 0.312272 0.418238 8.876230 -0.016556 -2.780058 0.000000 0.000000 0.000000 -5.340589 -7.121182 0.131747 -0.475333 9.591919 -2.084307 7.247217 4.599655 -1.097776 -2.985372 -10.635132 -0.716049 0.000000 0.000000 0.000000 0.000000 0.000000 0.000000 6.081584 -7.602185 -5.282607 6.801433 2.195886 -0.980760 0.140240 2.536863 2.751193 9.464665 2.993606 -4.491207 0.000000 0.000000 0.000000 0.000000 0.000000 0.000000 -10.249369 9.650006 -30.149186 2.829325 -3.066513 0.061428 0.155684 7.030357 -1.292691 0.000000 0.000000 0.000000 -5.858773 8.559729 -29.438199 0.828842 0.182513 0.020842 8.695316 -28.967506 -10.351312 0.000000 0.000000 0.000000
13.550101 76.508953 363.525387 10.669633 -0.119388 30.671984 -0.751716 0.235046 -30.329614 -0.302289 0.331987 0.415706 8.837579 -0.071117 -2.789158 0.000000 0.000000 0.000000 -5.135448 -7.113514 0.148128 -0.090661 8.756606 -2.120989 5.783687 8.710830 -0.851554 -3.689940 -15.723813 -0.128967 0.000000 0.000000 0.000000 0.000000 0.000000 0.000000 6.134588 -7.596005 -5.287833 6.910993 2.152395 -0.993185 -0.637129 3.409347 2.187733 8.468556 2.552768 -3.597170 0.000000 0.000000 0.000000 0.000000 0.000000 0.000000 -9.728173 9.567115 -30.137428 2.536209 -3.206298 0.066052 0.305562 8.524930 -1.658913 0.000000 0.000000 0.000000 -5.441194 8.475673 -29.384313 0.577227 0.046419 -0.015135 6.434245 -22.760437 -9.502313 0.000000 0.000000 0.000000
13.362338 76.524769 363.563281 10.448831 -0.132079 30.877331 -0.665189 0.154505 -30.536363 -0.259335 0.335268 0.413886 8.820332 -0.045502 -2.786179 0.000000 0.000000 0.000000 -4.951363 -7.083675 0.162373 0.420876 8.017775 -2.201710 4.689388 12.039882 -0.668279 -3.718933 -17.338151 -0.664229 0.000000 0.000000 0.000000 0.000000 0.000000 0.000000 6.216256 -7.550766 -5.289357 6.905280 2.144120 -0.995897 -1.300537 2.979345 2.709811 8.313349 2.471769 -3.614106 0.000000 0.000000 0.000000 0.000000 0.000000 0.000000 -9.172560 9.466300 -30.411742 2.244576 -3.337345 0.069646 0.584775 9.422791 -2.048074 0.000000 0.000000 0.000000 -4.995489 8.264198 -29.641524 0.284646 0.080694 -0.010433 4.933593 -18.747580 -8.730998 0.000000 0.000000 0.000000
13.190787 76.525154 363.622390 10.281786 -0.163297 31.117820 -0.649582 0.107113 -30.776401 -0.205041 0.341880 0.411493 8.837429 0.013354 -2.787160 0.000000 0.000000 0.000000 -4.792404 -7.039397 0.176401 0.542582 7.358311 -2.143773 5.644091 15.422390 -1.133213 -5.044766 -20.732484 -0.605893 0.000000 0.000000 0.000000 0.000000 0.000000 0.000000 6.296236 -7.496018 -5.295333 6.546969 2.307238 -0.937812 -1.144372 1.330416 4.003768 7.965657 4.616686 -5.607953 0.000000 0.000000 0.000000 0.000000 0.000000 0.000000 -8.703819 9.452103 -30.704906 2.020430 -3.477811 0.073342 0.787948 9.146764 -2.189589 0.000000 0.000000 0.000000 -4.613532 8.106086 -29.925518 -0.027010 0.032340 -0.030602 5.604734 -20.171778 -8.995801 0.000000 0.000000 0.000000
13.145743 76.526956 363.591537 10.280868 -0.080405 31.288103 -0.676945 0.099134 -30.952475 -0.184218 0.337302 0.412685 8.737453 -0.179777 -2.793937 0.000000 0.000000 0.000000 -4.769245 -7.170234 0.186360 0.713166 7.210558 -2.177688 6.302781 16.856414 -1.451419 -5.708933 -21.382997 -0.863672 0.000000 0.000000 0.000000 0.000000 0.000000 0.000000 6.290742 -7.546918 -5.284270 6.147370 2.524699 -0.894287 -0.787395 -0.208346 5.133589 8.097934 6.317356 -7.316877 0.000000 0.000000 0.000000 0.000000 0.000000 0.000000 -8.828542 9.335866 -30.868633 2.078632 -3.359659 0.069540 0.608346 9.875070 -2.137983 0.000000 0.000000 0.000000 -4.627163 7.921259 -30.137669 -0.096829 0.076232 -0.007626 4.241292 -16.408166 -8.487601 0.000000 0.000000 0.000000
13.146824 76.521969 363.529544 10.302357 0.003374 31.385134 -0.744277 0.065546 -31.052133 -0.199134 0.245893 0.416912 8.803516 -0.056384 -2.799554 0.000000 0.000000 0.000000 -4.682325 -7.133720 0.198058 0.790591 7.000280 -2.177365 7.226463 19.062897 -1.879339 -6.239947 -24.095245 -0.887732 0.000000 0.000000 0.000000 0.000000 0.000000 0.000000 6.307236 -7.467298 -5.290978 6.166506 2.611266 -0.951115 -0.138337 0.016659 4.794684 7.105258 4.769657 -5.808754 0.000000 0.000000 0.000000 0.000000 0.000000 0.000000 -9.155049 9.180910 -30.931185 2.260061 -3.122184 0.061763 0.669301 10.331454 -2.261999 0.000000 0.000000 0.000000 -4.720687 7.740378 -30.274810 -0.038027 0.185002 0.047158 3.619096 -15.136212 -8.050861 0.000000 0.000000 0.000000
